<?xml version="1.0" encoding="UTF-8" standalone="no"?>
<!DOCTYPE svg PUBLIC "-//W3C//DTD SVG 1.1//EN" "http://www.w3.org/Graphics/SVG/1.1/DTD/svg11.dtd">
<svg width="100%" height="100%" viewBox="0 0 2001 288" version="1.1" xmlns="http://www.w3.org/2000/svg" xmlns:xlink="http://www.w3.org/1999/xlink" xml:space="preserve" xmlns:serif="http://www.serif.com/" style="fill-rule:evenodd;clip-rule:evenodd;stroke-linejoin:round;stroke-miterlimit:2;">
    <rect id="Artboard1" x="0" y="0" width="2000" height="287.038" style="fill:none;"/>
    <g id="Artboard11" serif:id="Artboard1">
        <g transform="matrix(1,0,0,1,0,-0.962221)">
            <path d="M48.186,0.962L150.956,159.847L124.463,200.607L51.071,86.962L51.071,287.999L0,287.999L0,0.962L48.186,0.962ZM1595.81,26.19L1595.81,85.434L1643.36,85.434L1643.36,121.361L1595.81,121.361L1595.81,218.819C1595.81,240.989 1603.1,251.31 1626.87,251.31C1632.63,251.31 1638.76,251.31 1643.36,250.926L1643.36,286.852C1636.07,287.615 1627.26,288 1619.2,288L1617.77,287.994C1570.85,287.577 1550.55,266.482 1550.55,217.294L1550.55,121.361L1515.66,121.361L1515.66,85.434L1550.55,85.434L1550.55,26.19L1595.81,26.19ZM286.803,0.962L286.803,287.999L235.731,287.999L235.731,0.962L286.803,0.962ZM1451.65,26.19L1451.65,85.434L1499.2,85.434L1499.2,121.361L1451.65,121.361L1451.65,218.819C1451.65,240.989 1458.94,251.31 1482.72,251.31C1488.47,251.31 1494.61,251.31 1499.2,250.926L1499.2,286.852C1491.92,287.615 1483.1,288 1475.04,288L1473.61,287.994C1426.7,287.577 1406.4,266.482 1406.4,217.294L1406.4,121.361L1371.51,121.361L1371.51,85.434L1406.4,85.434L1406.4,26.19L1451.65,26.19ZM1753.38,80.841C1810.52,80.841 1849.64,124.032 1849.64,185.564L1849.64,186.439C1849.64,190.675 1849.59,196.929 1848.87,200.854L1702.38,200.854C1706.6,231.05 1728.84,251.308 1759.52,251.308C1779.46,251.308 1795.95,242.134 1808.99,226.081L1840.82,248.628C1822.03,273.856 1793.65,287.998 1759.91,287.998C1697.39,287.998 1656.36,245.192 1656.36,184.423C1656.36,124.417 1695.1,80.841 1753.38,80.841ZM406.12,80.841C471.693,80.841 491.255,116.006 491.255,166.838L491.255,283.408L446.002,283.408L446.002,266.977C431.812,280.734 410.719,287.998 387.71,287.998C344.374,287.998 312.932,261.245 312.932,223.401C312.932,185.564 344.374,158.811 387.71,158.811C412.257,158.811 430.66,166.075 446.002,177.922L446.002,159.196C446.002,134.354 435.266,117.916 400.749,117.916C382.725,117.916 365.087,124.032 350.131,136.264L324.054,110.274C347.063,90.778 375.823,80.841 406.12,80.841ZM1266.59,80.841C1332.16,80.841 1351.72,116.006 1351.72,166.838L1351.72,283.408L1306.47,283.408L1306.47,266.977C1292.28,280.734 1271.18,287.998 1248.17,287.998C1204.85,287.998 1173.4,261.245 1173.4,223.401C1173.4,185.564 1204.85,158.811 1248.17,158.811C1272.72,158.811 1291.12,166.075 1306.47,177.922L1306.47,159.196C1306.47,134.354 1295.73,117.916 1261.21,117.916C1243.19,117.916 1225.55,124.032 1210.6,136.264L1184.52,110.274C1207.53,90.778 1236.29,80.841 1266.59,80.841ZM579.22,85.435L579.22,283.418L533.967,283.418L533.967,85.435L579.22,85.435ZM1987.35,80.841C1991.57,80.841 1996.17,81.226 2000,81.604L2000,119.064C1996.17,118.679 1989.65,118.301 1983.9,118.301C1960.51,118.301 1939.03,130.148 1927.53,148.112L1927.53,283.408L1882.27,283.408L1882.27,85.432L1927.53,85.432L1927.53,109.505C1940.95,91.541 1960.89,80.841 1987.35,80.841ZM1078.33,80.841C1119.75,80.841 1142.76,106.453 1142.76,153.843L1142.76,283.408L1097.51,283.408L1097.51,161.106C1097.51,133.206 1088.69,117.531 1063.76,117.531C1046.89,117.531 1028.09,127.853 1017.74,141.995C1018.51,147.727 1018.51,153.458 1018.51,159.574L1018.51,283.408L973.256,283.408L973.256,161.106C973.256,133.206 965.203,117.531 939.511,117.531C922.253,117.531 904.608,127.09 893.872,140.085L893.872,283.408L848.619,283.408L848.619,85.432L893.872,85.432L893.872,105.306C909.979,90.778 930.686,80.841 954.467,80.841C980.159,80.841 998.948,91.163 1008.92,110.274C1026.18,94.221 1047.65,80.841 1078.33,80.841ZM735.762,80.841C777.56,80.841 805.941,106.831 805.941,154.99L805.941,283.408L760.688,283.408L760.688,161.485C760.688,133.584 748.414,117.531 722.337,117.531L721.327,117.54C699.486,117.925 679.61,130.735 669.037,144.291L669.037,283.408L623.784,283.408L623.784,85.432L669.037,85.432L669.037,108.364C684.372,93.074 707.002,80.841 735.762,80.841ZM1259.68,195.497C1235.14,195.497 1219.41,204.671 1219.41,223.397C1219.41,242.13 1235.14,251.305 1259.68,251.305L1260.72,251.298C1277.63,251.073 1294.44,245.33 1306.47,233.719L1306.47,213.082C1293.81,201.613 1277.71,195.497 1259.68,195.497ZM399.218,195.497C374.671,195.497 358.95,204.671 358.95,223.397C358.95,242.13 374.671,251.305 399.218,251.305L400.253,251.298C417.158,251.073 433.974,245.33 446.002,233.719L446.002,213.082C433.349,201.613 417.242,195.497 399.218,195.497ZM1753.38,117.535L1752.53,117.54C1724.63,117.903 1706.17,136.189 1702,166.457L1804.01,166.457C1801.7,136.268 1780.61,117.535 1753.38,117.535ZM556.597,0.962C572.318,0.962 584.592,12.81 584.592,28.485L584.585,29.126C584.255,44.475 572.103,56 556.597,56C540.869,56 528.603,44.153 528.603,28.485C528.603,12.81 540.869,0.962 556.597,0.962Z" style="fill:white;"/>
        </g>
    </g>
</svg>
